# xmcd CD database file
#
# Track frame offsets:
#	150
#	30820
#	62675
#	76580
#	100772
#	121332
#	139987
#	149032
#	166700
#	176025
#	186340
#	202080
#	217990
#	238507
#	255650
#	263412
#	275922
#	285600
#	292817
#
# Disc length: 4152 seconds
#
# Revision: 0
# Processed by: cddbd v1.5.2PL0 Copyright (c) Steve Scherf et al.
# Submitted via: CDex 1.51
#
DISCID=15103613
DTITLE=Mirage - Twilight Eyes
DYEAR=1900
DGENRE=New Age
TTITLE0=The Catholics
TTITLE1=Twilight Eyes
TTITLE2=Crux Industries
TTITLE3=Blackhawk: A Fire in the Night
TTITLE4=Penny's Sacrifice
TTITLE5=Maker of the Endless
TTITLE6=Lady of the Garden
TTITLE7=And the Machines Sang
TTITLE8=Crane Spirit and Rain Maiden
TTITLE9=Rainy Night
TTITLE10=SHopping
TTITLE11=The Drifter
TTITLE12=MEggan: SOng BEfore the Darkness
TTITLE13=REverend Mother Morgan Midian
TTITLE14=Hellride
TTITLE15=Chase
TTITLE16=Omega Vice
TTITLE17=Return to the Garden
TTITLE18=Dusk (Australian Sunset)
EXTD=
EXTT0=
EXTT1=
EXTT2=
EXTT3=
EXTT4=
EXTT5=
EXTT6=
EXTT7=
EXTT8=
EXTT9=
EXTT10=
EXTT11=
EXTT12=
EXTT13=
EXTT14=
EXTT15=
EXTT16=
EXTT17=
EXTT18=
PLAYORDER=
